<?xml version="1.0" encoding="utf-8"?>
<!-- Generator: Adobe Illustrator 26.2.1, SVG Export Plug-In . SVG Version: 6.00 Build 0)  -->
<svg version="1.1" id="图层_1" xmlns="http://www.w3.org/2000/svg" xmlns:xlink="http://www.w3.org/1999/xlink" x="0px" y="0px"
	 viewBox="0 0 256 256" style="enable-background:new 0 0 256 256;" xml:space="preserve">
<style type="text/css">
	.st0{fill:none;stroke:#000000;stroke-width:14;stroke-miterlimit:10;}
	.st1{fill:#3FA9F5;stroke:#000000;stroke-width:2;stroke-miterlimit:10;}
	.st2{fill:#7AC943;stroke:#000000;stroke-width:2;stroke-miterlimit:10;}
	.st3{fill:#FF1D25;stroke:#000000;stroke-width:2;stroke-miterlimit:10;}
</style>
<g>
	<g>
		<line class="st0" x1="36" y1="228" x2="36" y2="57.57"/>
		<g>
			<path d="M36,28c5.16,13.92,13.97,31.18,23.3,41.88L36,61.45l-23.3,8.43C22.03,59.18,30.84,41.92,36,28z"/>
		</g>
	</g>
</g>
<g>
	<g>
		<line class="st0" x1="29" y1="221" x2="199.43" y2="221"/>
		<g>
			<path d="M229,221c-13.92,5.16-31.18,13.97-41.88,23.3l8.43-23.3l-8.43-23.3C197.82,207.03,215.08,215.84,229,221z"/>
		</g>
	</g>
</g>
<circle class="st1" cx="186.5" cy="150.5" r="10.5"/>
<circle class="st1" cx="158.5" cy="157.5" r="10.5"/>
<circle class="st2" cx="130.53" cy="101.52" r="11.5"/>
<circle class="st1" cx="168.5" cy="131.5" r="10.5"/>
<circle class="st2" cx="121.5" cy="60.5" r="11.5"/>
<circle class="st2" cx="103.5" cy="114.5" r="11.5"/>
<circle class="st2" cx="73.5" cy="101.5" r="11.5"/>
<circle class="st2" cx="102.5" cy="83.5" r="11.5"/>
<circle class="st3" cx="103.5" cy="189.5" r="10.5"/>
<circle class="st3" cx="73.5" cy="184.5" r="10.5"/>
<circle class="st3" cx="97.5" cy="163.5" r="10.5"/>
<circle class="st3" cx="73.5" cy="149.5" r="10.5"/>
</svg>
