<?xml version="1.0" encoding="utf-8"?>
<!-- Generator: Adobe Illustrator 26.2.1, SVG Export Plug-In . SVG Version: 6.00 Build 0)  -->
<svg version="1.1" id="图层_1" xmlns="http://www.w3.org/2000/svg" xmlns:xlink="http://www.w3.org/1999/xlink" x="0px" y="0px"
	 viewBox="0 0 256 256" style="enable-background:new 0 0 256 256;" xml:space="preserve">
<style type="text/css">
	.st0{fill:#7AC943;}
	.st1{fill:#FF0000;}
	.st2{fill:none;stroke:#000000;stroke-width:3;stroke-miterlimit:10;}
</style>
<g>
	<path class="st0" d="M44,106c-7.17,0-13-5.83-13-13s5.83-13,13-13h168c7.17,0,13,5.83,13,13s-5.83,13-13,13H44z"/>
	<path d="M212,83c5.51,0,10,4.49,10,10s-4.49,10-10,10H44c-5.51,0-10-4.49-10-10s4.49-10,10-10H212 M212,77H44c-8.8,0-16,7.2-16,16
		s7.2,16,16,16h168c8.8,0,16-7.2,16-16S220.8,77,212,77L212,77z"/>
</g>
<g>
	<path class="st0" d="M44,162c-7.17,0-13-5.83-13-13s5.83-13,13-13h168c7.17,0,13,5.83,13,13s-5.83,13-13,13H44z"/>
	<path d="M212,139c5.51,0,10,4.49,10,10s-4.49,10-10,10H44c-5.51,0-10-4.49-10-10s4.49-10,10-10H212 M212,133H44
		c-8.8,0-16,7.2-16,16s7.2,16,16,16h168c8.8,0,16-7.2,16-16S220.8,133,212,133L212,133z"/>
</g>
<g>
	<rect x="56.5" y="83" width="5.21" height="20"/>
</g>
<g>
	<rect x="88.5" y="83" width="9" height="20"/>
</g>
<g>
	<rect x="138.5" y="83" width="17.5" height="20"/>
</g>
<g>
	<rect x="191.5" y="83" width="9" height="20"/>
</g>
<g>
	<rect x="56.79" y="139" width="5.21" height="20"/>
</g>
<g>
	<rect x="89" y="139" width="9" height="20"/>
</g>
<g>
	<rect x="139" y="139" width="17" height="20"/>
</g>
<g>
	<rect x="192" y="139" width="9" height="20"/>
</g>
<g>
	<rect x="48.5" y="54.5" class="st1" width="20" height="11"/>
	<path d="M67,56v8H50v-8H67 M70,53H47v14h23V53L70,53z"/>
</g>
<g>
	<rect x="92.5" y="54.5" class="st1" width="20" height="11"/>
	<path d="M111,56v8H94v-8H111 M114,53H91v14h23V53L114,53z"/>
</g>
<g>
	<line class="st2" x1="70" y1="60.5" x2="93" y2="60.5"/>
	<line class="st1" x1="70" y1="60.5" x2="93" y2="60.5"/>
</g>
<g>
	<rect x="137.5" y="21.5" class="st1" width="20" height="11"/>
	<path d="M156,23v8h-17v-8H156 M159,20h-23v14h23V20L159,20z"/>
</g>
<g>
	<rect x="181.5" y="21.5" class="st1" width="20" height="11"/>
	<path d="M200,23v8h-17v-8H200 M203,20h-23v14h23V20L203,20z"/>
</g>
<g>
	<line class="st2" x1="159" y1="27.5" x2="182" y2="27.5"/>
	<line class="st1" x1="159" y1="27.5" x2="182" y2="27.5"/>
</g>
<g>
	<rect x="149.5" y="54.5" class="st1" width="20" height="11"/>
	<path d="M168,56v8h-17v-8H168 M171,53h-23v14h23V53L171,53z"/>
</g>
<g>
	<rect x="193.5" y="54.5" class="st1" width="20" height="11"/>
	<path d="M212,56v8h-17v-8H212 M215,53h-23v14h23V53L215,53z"/>
</g>
<g>
	<line class="st2" x1="171" y1="60.5" x2="194" y2="60.5"/>
	<line class="st1" x1="171" y1="60.5" x2="194" y2="60.5"/>
</g>
<g>
	<rect x="52.5" y="21.5" class="st1" width="20" height="11"/>
	<path d="M71,23v8H54v-8H71 M74,20H51v14h23V20L74,20z"/>
</g>
<g>
	<rect x="96.5" y="21.5" class="st1" width="20" height="11"/>
	<path d="M115,23v8H98v-8H115 M118,20H95v14h23V20L118,20z"/>
</g>
<g>
	<line class="st2" x1="74" y1="27.5" x2="97" y2="27.5"/>
	<line class="st1" x1="74" y1="27.5" x2="97" y2="27.5"/>
</g>
<g>
	<rect x="59.5" y="197.5" class="st1" width="20" height="11"/>
	<path d="M78,199v8H61v-8H78 M81,196H58v14h23V196L81,196z"/>
</g>
<g>
	<rect x="103.5" y="197.5" class="st1" width="20" height="11"/>
	<path d="M122,199v8h-17v-8H122 M125,196h-23v14h23V196L125,196z"/>
</g>
<g>
	<line class="st2" x1="81" y1="203.5" x2="104" y2="203.5"/>
	<line class="st1" x1="81" y1="203.5" x2="104" y2="203.5"/>
</g>
<g>
	<rect x="40.5" y="220.5" class="st1" width="20" height="11"/>
	<path d="M59,222v8H42v-8H59 M62,219H39v14h23V219L62,219z"/>
</g>
<g>
	<rect x="84.5" y="220.5" class="st1" width="20" height="11"/>
	<path d="M103,222v8H86v-8H103 M106,219H83v14h23V219L106,219z"/>
</g>
<g>
	<line class="st2" x1="62" y1="226.5" x2="85" y2="226.5"/>
	<line class="st1" x1="62" y1="226.5" x2="85" y2="226.5"/>
</g>
<g>
	<rect x="162.5" y="174.5" class="st1" width="20" height="11"/>
	<path d="M181,176v8h-17v-8H181 M184,173h-23v14h23V173L184,173z"/>
</g>
<g>
	<rect x="119.5" y="174.5" class="st1" width="20" height="11"/>
	<path d="M138,176v8h-17v-8H138 M141,173h-23v14h23V173L141,173z"/>
</g>
<g>
	<rect x="206.5" y="174.5" class="st1" width="20" height="11"/>
	<path d="M225,176v8h-17v-8H225 M228,173h-23v14h23V173L228,173z"/>
</g>
<g>
	<line class="st2" x1="184" y1="180.5" x2="207" y2="180.5"/>
</g>
<g>
	<rect x="155.5" y="197.5" class="st1" width="20" height="11"/>
	<path d="M174,199v8h-17v-8H174 M177,196h-23v14h23V196L177,196z"/>
</g>
<g>
	<rect x="199.5" y="197.5" class="st1" width="20" height="11"/>
	<path d="M218,199v8h-17v-8H218 M221,196h-23v14h23V196L221,196z"/>
</g>
<g>
	<line class="st2" x1="177" y1="203.5" x2="200" y2="203.5"/>
	<line class="st1" x1="177" y1="203.5" x2="200" y2="203.5"/>
</g>
<g>
	<rect x="135.5" y="220.5" class="st1" width="20" height="11"/>
	<path d="M154,222v8h-17v-8H154 M157,219h-23v14h23V219L157,219z"/>
</g>
<g>
	<rect x="179.5" y="220.5" class="st1" width="20" height="11"/>
	<path d="M198,222v8h-17v-8H198 M201,219h-23v14h23V219L201,219z"/>
</g>
<g>
	<line class="st2" x1="157" y1="226.5" x2="180" y2="226.5"/>
	<line class="st1" x1="157" y1="226.5" x2="180" y2="226.5"/>
</g>
<g>
	<rect x="31.5" y="174.5" class="st1" width="20" height="11"/>
	<path d="M50,176v8H33v-8H50 M53,173H30v14h23V173L53,173z"/>
</g>
<g>
	<rect x="75.5" y="174.5" class="st1" width="20" height="11"/>
	<path d="M94,176v8H77v-8H94 M97,173H74v14h23V173L97,173z"/>
</g>
<g>
	<line class="st2" x1="53" y1="180.5" x2="76" y2="180.5"/>
</g>
</svg>
