<?xml version="1.0" encoding="utf-8"?>
<!-- Generator: Adobe Illustrator 26.2.1, SVG Export Plug-In . SVG Version: 6.00 Build 0)  -->
<svg version="1.1" id="图层_1" xmlns="http://www.w3.org/2000/svg" xmlns:xlink="http://www.w3.org/1999/xlink" x="0px" y="0px"
	 viewBox="0 0 256 256" style="enable-background:new 0 0 256 256;" xml:space="preserve">
<style type="text/css">
	.st0{fill:#FF931E;stroke:#000000;stroke-width:4;stroke-miterlimit:10;}
	.st1{stroke:#000000;stroke-width:4;stroke-miterlimit:10;}
	.st2{fill:#ED1E79;stroke:#000000;stroke-width:4;stroke-miterlimit:10;}
	.st3{fill:#29ABE2;stroke:#000000;stroke-width:4;stroke-miterlimit:10;}
</style>
<g>
	<circle class="st0" cx="63.5" cy="58" r="31.8"/>
	<path class="st1" d="M63.5,30c15.5,0,28,12.6,28,28S79,86,63.5,86s-28-12.6-28-28S48,30,63.5,30 M63.5,22.5
		C43.9,22.5,28,38.4,28,58s15.9,35.5,35.5,35.5S99,77.6,99,58S83.1,22.5,63.5,22.5L63.5,22.5z"/>
</g>
<g>
	<path class="st2" d="M201.5,159.7c-5,0-9.8-1.2-14.3-3.4c-7.6-3.8-13.2-10.4-15.8-18.4c-2.7-8-2-16.7,1.8-24.2
		c5.4-10.8,16.3-17.4,28.4-17.4c5,0,9.8,1.2,14.3,3.4c15.6,7.9,21.9,27,14,42.7C224.4,153.1,213.6,159.7,201.5,159.7z"/>
	<path class="st1" d="M201.5,100L201.5,100c4.4,0,8.7,1,12.6,3c6.7,3.4,11.6,9.2,14,16.2c2.3,7.1,1.8,14.7-1.6,21.4
		c-4.8,9.5-14.4,15.4-25,15.4c-4.4,0-8.7-1-12.6-3c-6.7-3.4-11.6-9.2-14-16.2c-2.3-7.1-1.8-14.7,1.6-21.4
		C181.3,105.9,190.9,100,201.5,100 M201.5,92.5c-13,0-25.5,7.1-31.7,19.5c-8.8,17.5-1.8,38.8,15.7,47.7c5.1,2.6,10.6,3.8,16,3.8
		c13,0,25.5-7.1,31.7-19.5c8.8-17.5,1.8-38.8-15.7-47.7C212.4,93.7,206.9,92.5,201.5,92.5L201.5,92.5z"/>
</g>
<g>
	<circle class="st3" cx="63.5" cy="197.5" r="31.8"/>
	<path class="st1" d="M63.5,169.5c15.5,0,28,12.6,28,28s-12.6,28-28,28s-28-12.6-28-28S48,169.5,63.5,169.5 M63.5,162
		C43.9,162,28,177.9,28,197.5S43.9,233,63.5,233S99,217.1,99,197.5S83.1,162,63.5,162L63.5,162z"/>
</g>
<rect x="56.5" y="90.6" width="14" height="71.5"/>
<rect x="123.9" y="111.5" transform="matrix(-0.5 -0.866 0.866 -0.5 60.6553 348.2978)" width="14" height="90.3"/>
<rect x="128.4" y="45.2" transform="matrix(-0.5 0.866 -0.866 -0.5 281.58 18.558)" width="14" height="90.7"/>
</svg>
