<?xml version="1.0" encoding="utf-8"?>
<!-- Generator: Adobe Illustrator 26.2.1, SVG Export Plug-In . SVG Version: 6.00 Build 0)  -->
<svg version="1.1" id="图层_1" xmlns="http://www.w3.org/2000/svg" xmlns:xlink="http://www.w3.org/1999/xlink" x="0px" y="0px"
	 viewBox="0 0 256 256" style="enable-background:new 0 0 256 256;" xml:space="preserve">
<style type="text/css">
	.st0{fill:#662D91;}
	.st1{fill:none;}
	.st2{fill:none;stroke:#000000;stroke-width:6;stroke-miterlimit:10;}
	.st3{fill:none;stroke:#FFFFFF;stroke-width:20;stroke-linecap:round;stroke-miterlimit:10;}
	.st4{fill:#FFFFFF;}
</style>
<g>
	<circle class="st0" cx="128" cy="128" r="128"/>
</g>
<path class="st1" d="M133,128"/>
<path class="st2" d="M133,256"/>
<path class="st2" d="M133,0"/>
<path class="st3" d="M155.5,183.5"/>
<path class="st3" d="M95.5,183.5"/>
<g>
	<path class="st4" d="M126.5,266c-5.5,0-10-4.5-10-10c0-16.5-10.6-31.5-22.8-48.7c-15-21.1-31.9-45-31.7-77.3
		c0.2-33.1,16.8-57.1,31.4-78.3c12.4-18,23.1-33.5,23.1-51.7c0-5.5,4.5-10,10-10s10,4.5,10,10c0,24.5-13.5,44.1-26.6,63.1
		C96.3,82.8,82.2,103.2,82,130.2c-0.2,25.8,14.1,46,28,65.5c13,18.4,26.5,37.4,26.5,60.3C136.5,261.5,132,266,126.5,266z"/>
</g>
<path class="st4" d="M182,140H82c-5.5,0-10-4.5-10-10l0,0c0-5.5,4.5-10,10-10h100c5.5,0,10,4.5,10,10l0,0
	C192,135.5,187.5,140,182,140z"/>
<path class="st4" d="M156,193H97c-5.5,0-10-4.5-10-10l0,0c0-5.5,4.5-10,10-10h59c5.5,0,10,4.5,10,10l0,0
	C166,188.5,161.5,193,156,193z"/>
<path class="st4" d="M156,87H97c-5.5,0-10-4.5-10-10l0,0c0-5.5,4.5-10,10-10h59c5.5,0,10,4.5,10,10l0,0C166,82.5,161.5,87,156,87z"
	/>
</svg>
