<?xml version="1.0" encoding="utf-8"?>
<!-- Generator: Adobe Illustrator 26.2.1, SVG Export Plug-In . SVG Version: 6.00 Build 0)  -->
<svg version="1.1" id="图层_1" xmlns="http://www.w3.org/2000/svg" xmlns:xlink="http://www.w3.org/1999/xlink" x="0px" y="0px"
	 viewBox="0 0 24 24" style="enable-background:new 0 0 24 24;" xml:space="preserve">
<style type="text/css">
	.st0{fill:none;}
	.st1{fill:#00D465;stroke:#000000;stroke-linecap:round;stroke-linejoin:round;}
	.st2{fill:none;stroke:#FFFFFF;stroke-width:2;stroke-linecap:round;stroke-linejoin:round;}
</style>
<path class="st0" d="M0,0h24v24H0V0z"/>
<path class="st1" d="M12,3c7.2,0,9,1.8,9,9s-1.8,9-9,9s-9-1.8-9-9S4.8,3,12,3z"/>
<path class="st2" d="M10,15c0,0.6,0.4,1,1,1h2c0.6,0,1-0.4,1-1v-2c0-0.6-0.4-1-1-1h-2c-0.6,0-1-0.4-1-1V9c0-0.6,0.4-1,1-1h2
	c0.6,0,1,0.4,1,1"/>
</svg>
