<?xml version="1.0" encoding="utf-8"?>
<!-- Generator: Adobe Illustrator 26.2.1, SVG Export Plug-In . SVG Version: 6.00 Build 0)  -->
<svg version="1.1" id="图层_1" xmlns="http://www.w3.org/2000/svg" xmlns:xlink="http://www.w3.org/1999/xlink" x="0px" y="0px"
	 viewBox="0 0 22 22" style="enable-background:new 0 0 22 22;" xml:space="preserve">
<path d="M3,5c0-1.1,0.9-2,2-2h12c1.1,0,2,0.9,2,2v12c0,1.1-0.9,2-2,2H5c-1.1,0-2-0.9-2-2V5z M18,7h-4v3h4V7z M18,11h-4v3h4V11z
	 M18,15h-4v3h3c0.6,0,1-0.4,1-1V15z M13,18v-3H9v3H13z M8,18v-3H4v2c0,0.6,0.4,1,1,1H8z M4,14h4v-3H4V14z M4,10h4V7H4V10z M9,7v3h4
	V7H9z M13,11H9v3h4V11z"/>
</svg>
